# xmcd
#
# Track frame offsets:
#	150
#	14550
#	34957
#	51165
#	63152
#	92660
#	108322
#	118382
#	132310
#	146922
#
# Disc length: 2169 seconds
#
# Revision: 2
# Processed by: cddbd v1.5.2PL0 Copyright (c) Steve Scherf et al.
# Submitted via: audiograbber 1.81.02
#
DISCID=9408770a
DTITLE=Various Artist - NASCAR - Runnin' Wide Open
DYEAR=1995
DGENRE=Country
TTITLE0=T. Graham Brown - Dedicated NASCAR Fan
TTITLE1=Billy Ray Cyrus - The Fastest Horse In A One Horse Town
TTITLE2=Colin Raye - The Wall
TTITLE3=Ken Mellons - Fuel To The Fire
TTITLE4=Jeff Foxworthy - You Could Be  A NASAR Fan If...
TTITLE5=Ricky Van Shelton - Junk Cars
TTITLE6=Sammy Kershaw - Racing With My Heart
TTITLE7=Joe Diffie - Runnin' Wide Open
TTITLE8=Rick Trevino - Cadillac Ranch
TTITLE9=Kyle Petty - Oh King Richard
EXTD=
EXTT0=
EXTT1=
EXTT2=
EXTT3=
EXTT4=
EXTT5=
EXTT6=
EXTT7=
EXTT8=
EXTT9=
PLAYORDER=
